<svg xmlns="http://www.w3.org/2000/svg" width="44" height="44"><path d="M0 0h44v44H0z" style="fill:#000;fill-opacity:1;stroke:none"/><path d="M22 4.125C12.1289 4.125 4.125 12.1289 4.125 22c0 8.4414 5.85156 15.51172 13.71875 17.38281a16.20002 16.20002 0 0 1-1.20703-.32812v-4.09375s-.66797.22265-1.5625.22265c-2.5 0-3.53906-2.23047-3.80078-3.35156-.15625-.6836-.5664-1.33203-1.00782-1.72656-.52734-.46875-.77343-.47266-.77734-.63281-.00781-.33594.45313-.32422.66797-.32422 1.11719 0 1.96484 1.1914 2.35938 1.80468.97265 1.51563 2.01953 1.77344 2.55859 1.77344.66797 0 1.25-.10156 1.64844-.29297.18359-1.30078.76171-2.45703 1.70312-3.28515-4.1914-.83594-7.15234-3.24219-7.15234-7.14844 0-2.01172.8086-3.86328 2.15625-5.35547-.13672-.39062-.36719-1.17969-.36719-2.46484 0-.84766.0586-1.89063.44531-2.90625 0 0 2.55078.01953 4.95313 2.29687C19.57422 13.2461 20.7578 13.0625 22 13.0625s2.42578.1836 3.53906.50781c2.40235-2.27734 4.95313-2.29687 4.95313-2.29687.38672 1.01562.44531 2.0586.44531 2.90625 0 1.38672-.1836 2.1914-.29688 2.54297 1.3047 1.48046 2.08594 3.30078 2.08594 5.27734 0 3.90625-2.96093 6.3125-7.15234 7.14844 1.1211.98437 1.78906 2.41797 1.78906 4.02343v5.88282a16.20002 16.20002 0 0 1-1.20703.32812C34.02344 37.51171 39.875 30.44141 39.875 22c0-9.8711-8.0039-17.875-17.875-17.875Zm1.2461 35.70313c-.41016.02734-.82813.04687-1.2461.04687.41797 0 .83203-.01953 1.2461-.04688Zm2.73046-.40235c-.80078.1836-1.61718.3086-2.45703.3789.83985-.0703 1.65625-.19921 2.45703-.3789ZM22 39.875c-.41797 0-.83594-.01953-1.2461-.04688.41407.02735.82813.04688 1.2461.04688Zm-1.51953-.07031c-.83985-.07032-1.66016-.19532-2.45703-.3789.80078.17968 1.61718.30859 2.45703.3789Zm0 0" style="stroke:none;fill-rule:nonzero;fill:#fff;fill-opacity:1"/></svg>
