<svg xmlns="http://www.w3.org/2000/svg" xmlns:xlink="http://www.w3.org/1999/xlink" viewBox="0,0,256,256" width="24px" height="24px" fill-rule="nonzero"><g fill="#dadada" fill-rule="nonzero" stroke="none" stroke-width="1" stroke-linecap="butt" stroke-linejoin="miter" stroke-miterlimit="10" stroke-dasharray="" stroke-dashoffset="0" font-family="none" font-weight="none" font-size="none" text-anchor="none" style="mix-blend-mode: normal"><g transform="scale(4,4)"><path d="M21,13c-4.98,0 -8.40906,1.93839 -10.28906,3.40039c-1.085,0.844 -1.71094,2.14258 -1.71094,3.51758v29.1543c0,1.104 0.90858,1.90234 1.89258,1.90234c0.32,0 0.64612,-0.08453 0.95313,-0.26953c2.141,-1.292 5.3533,-2.70508 9.1543,-2.70508c2.973,0 5.40375,0.90245 7.21875,1.93945c1.173,0.671 2.47725,1.00586 3.78125,1.00586c1.304,0 2.60825,-0.33486 3.78125,-1.00586c1.815,-1.037 4.24575,-1.93945 7.21875,-1.93945c3.801,0 7.0133,1.41213 9.1543,2.70313c0.307,0.185 0.63412,0.26953 0.95313,0.26953c0.984,0 1.89258,-0.79639 1.89258,-1.90039v-29.1543c0,-1.375 -0.62594,-2.67358 -1.71094,-3.51758c-1.88,-1.462 -5.30906,-3.40039 -10.28906,-3.40039c-8,0 -11,4 -11,4c0,0 -3,-4 -11,-4zM21,17c4.10959,0 7.1588,2.04695 9,3.73633v25.23047c-1.83626,-0.89025 -4.8779,-1.9668 -9,-1.9668c-3.061,0 -5.785,0.73139 -8,1.65039v-25.92773c0,0 3.028,-2.72266 8,-2.72266zM43,17c4.991,0 8,2.69141 8,2.69141v25.95899c-2.215,-0.919 -4.939,-1.65039 -8,-1.65039c-4.11464,0 -7.1609,1.07812 -9,1.96875v-25.23437c1.84032,-1.68904 4.88834,-3.73437 9,-3.73437z"></path></g></g></svg>